<svg width="100" height="79" viewBox="0 0 100 79" fill="none" xmlns="http://www.w3.org/2000/svg">
<g id="Frame 4">
<g clip-path="url(#clip0_33_4148)">
<g id="ebook/pana">
<g id="Device">
<path id="Vector" d="M17.1352 79.8369C17.1352 79.8369 16.6454 82.4589 20.9597 82.651C25.274 82.8431 34.1562 83.0563 34.1562 83.0563L33.5991 77.4224L19.7687 76.4619L17.5597 78.087L17.1352 79.8369Z" fill="#E0E0E0"/>
<path id="Vector_2" d="M63.8838 2.58643H22.7077C21.0103 2.58643 19.6343 3.96244 19.6343 5.65984V80.5244C19.6343 82.2218 21.0103 83.5979 22.7077 83.5979H63.8838C65.5812 83.5979 66.9572 82.2218 66.9572 80.5244V5.65984C66.9572 3.96244 65.5812 2.58643 63.8838 2.58643Z" fill="#263238"/>
<path id="Vector_3" d="M22.241 6.30127H64.3487V80.5205H23.2417C22.9763 80.5205 22.7218 80.415 22.5341 80.2273C22.3464 80.0396 22.241 79.7851 22.241 79.5197V6.30127Z" fill="white"/>
<path id="Vector_4" d="M47.4315 4.53224H38.4264C38.2837 4.53224 38.1469 4.47557 38.046 4.37471C37.9452 4.27384 37.8885 4.13704 37.8885 3.99439C37.8885 3.85174 37.9452 3.71494 38.046 3.61407C38.1469 3.51321 38.2837 3.45654 38.4264 3.45654H47.4315C47.5741 3.45654 47.7109 3.51321 47.8118 3.61407C47.9126 3.71494 47.9693 3.85174 47.9693 3.99439C47.9693 4.13704 47.9126 4.27384 47.8118 4.37471C47.7109 4.47557 47.5741 4.53224 47.4315 4.53224Z" fill="#455A64"/>
<path id="Vector_5" d="M27.9826 14.231V14.7592H27.9403C27.9129 14.6353 27.8454 14.5239 27.7482 14.4423C27.6627 14.3706 27.5544 14.3317 27.4428 14.3328C27.3495 14.332 27.2582 14.3602 27.1815 14.4134C27.1032 14.4662 27.0424 14.5411 27.0067 14.6286C26.957 14.7504 26.9328 14.8812 26.9357 15.0128C26.9342 15.1389 26.9516 15.2645 26.9875 15.3854C27.0136 15.4852 27.07 15.5744 27.1489 15.6409C27.2316 15.7015 27.3326 15.732 27.4351 15.7273C27.5267 15.7285 27.6172 15.7067 27.6983 15.6639C27.7953 15.6076 27.8812 15.5341 27.9518 15.4469V15.5775C27.877 15.6592 27.7861 15.7246 27.6848 15.7696C27.5819 15.812 27.4715 15.833 27.3602 15.8311C27.2097 15.834 27.0607 15.8003 26.9261 15.7331C26.8021 15.6704 26.6997 15.5721 26.6322 15.4507C26.5662 15.3334 26.5312 15.2012 26.5304 15.0665C26.5307 14.9206 26.5698 14.7774 26.6437 14.6516C26.7173 14.5242 26.8242 14.4193 26.953 14.3481C27.0791 14.2775 27.2213 14.2404 27.3659 14.2406C27.4825 14.2428 27.5978 14.2662 27.7059 14.3097C27.7475 14.3289 27.7914 14.3424 27.8366 14.3501C27.8483 14.3503 27.8599 14.3482 27.8708 14.3439C27.8816 14.3396 27.8916 14.3332 27.9 14.3251C27.9197 14.301 27.9317 14.2716 27.9345 14.2406L27.9826 14.231Z" fill="#263238"/>
<path id="Vector_6" d="M28.6163 14.2671V14.876C28.662 14.8246 28.7159 14.7811 28.7758 14.7473C28.8219 14.7225 28.8733 14.7094 28.9256 14.7089C28.987 14.7073 29.047 14.7278 29.0946 14.7665C29.1391 14.7998 29.172 14.8461 29.1888 14.8991C29.2077 14.9828 29.2154 15.0687 29.2118 15.1545V15.5656C29.2071 15.6165 29.2143 15.6678 29.2329 15.7154C29.2578 15.7393 29.2907 15.753 29.3251 15.7539V15.7942H28.7911V15.7539C28.8076 15.7523 28.8236 15.7473 28.8381 15.7394C28.8526 15.7315 28.8654 15.7207 28.8757 15.7078C28.8941 15.6628 28.9014 15.614 28.8968 15.5656V15.0931C28.8995 15.0384 28.8957 14.9836 28.8853 14.9298C28.8798 14.9091 28.8676 14.8909 28.8507 14.8779C28.8354 14.8656 28.8165 14.8588 28.7969 14.8587C28.7647 14.8597 28.7336 14.8712 28.7085 14.8914C28.671 14.9208 28.6397 14.9574 28.6163 14.9989V15.5637C28.6122 15.6111 28.618 15.6589 28.6336 15.7039C28.6439 15.718 28.6571 15.7296 28.6724 15.7379C28.6877 15.7462 28.7046 15.751 28.722 15.7519V15.7923H28.188V15.7519C28.2058 15.7513 28.2234 15.7471 28.2395 15.7395C28.2557 15.7319 28.2702 15.7211 28.2821 15.7078C28.3003 15.6621 28.3069 15.6126 28.3013 15.5637V14.4938C28.3061 14.4435 28.2988 14.3928 28.2802 14.3458C28.2553 14.322 28.2224 14.3083 28.188 14.3074V14.2671H28.6163Z" fill="#263238"/>
<path id="Vector_7" d="M30.0494 15.6368C29.958 15.7326 29.8353 15.7925 29.7036 15.8058C29.6761 15.8066 29.6487 15.8018 29.623 15.7917C29.5974 15.7816 29.5741 15.7663 29.5545 15.7469C29.5349 15.7275 29.5195 15.7044 29.5091 15.6788C29.4988 15.6533 29.4937 15.6259 29.4942 15.5984C29.4951 15.5572 29.5049 15.5167 29.5228 15.4796C29.5407 15.4424 29.5663 15.4096 29.598 15.3832C29.7362 15.2775 29.888 15.1909 30.0494 15.1258V15.0202C30.0529 14.9698 30.0484 14.9193 30.0359 14.8704C30.0261 14.8478 30.0093 14.8289 29.9879 14.8166C29.9637 14.8015 29.9358 14.7935 29.9072 14.7935C29.8645 14.7918 29.8223 14.8032 29.7862 14.8262C29.7777 14.8311 29.7706 14.8381 29.7656 14.8465C29.7605 14.8549 29.7577 14.8644 29.7574 14.8742C29.7604 14.8965 29.7713 14.9169 29.7881 14.9318C29.8135 14.9568 29.8286 14.9904 29.8304 15.026C29.8305 15.0436 29.8269 15.061 29.82 15.0772C29.8131 15.0934 29.8029 15.108 29.7901 15.1201C29.7605 15.1462 29.7219 15.16 29.6825 15.1585C29.6387 15.1592 29.5961 15.1435 29.5634 15.1143C29.5486 15.1022 29.5366 15.087 29.5283 15.0697C29.52 15.0525 29.5156 15.0336 29.5154 15.0144C29.5174 14.9569 29.5406 14.9021 29.5807 14.8608C29.6289 14.8075 29.6906 14.7684 29.7593 14.7474C29.8358 14.7205 29.9164 14.7069 29.9975 14.7071C30.0816 14.7027 30.1649 14.7249 30.2357 14.7705C30.2857 14.8045 30.3245 14.8527 30.3471 14.9088C30.3625 14.98 30.3683 15.053 30.3644 15.1258V15.535C30.361 15.565 30.361 15.5953 30.3644 15.6253C30.3667 15.6361 30.3721 15.6461 30.3798 15.6541C30.3885 15.6569 30.3979 15.6569 30.4067 15.6541C30.4259 15.6541 30.4451 15.6406 30.4662 15.6137L30.4989 15.6406C30.4698 15.6889 30.4304 15.7303 30.3836 15.7616C30.3425 15.7864 30.2952 15.799 30.2472 15.7981C30.1963 15.8015 30.1459 15.7865 30.1051 15.7559C30.0731 15.724 30.0534 15.6818 30.0494 15.6368ZM30.0494 15.5542V15.2027C29.9743 15.2458 29.9089 15.304 29.8573 15.3736C29.8286 15.4082 29.813 15.4517 29.8131 15.4966C29.8129 15.5133 29.8161 15.5299 29.8223 15.5454C29.8286 15.5608 29.8379 15.5749 29.8496 15.5869C29.8598 15.5973 29.8721 15.6055 29.8856 15.6108C29.8992 15.6161 29.9138 15.6184 29.9284 15.6176C29.9745 15.6102 30.017 15.5879 30.0494 15.5542Z" fill="#263238"/>
<path id="Vector_8" d="M31.0252 15.6848V16.0689C31.0224 16.106 31.027 16.1432 31.0386 16.1784C31.0459 16.1972 31.0595 16.2128 31.077 16.2226C31.1118 16.2333 31.1482 16.2379 31.1846 16.2361V16.2764H30.5834V16.2361C30.6025 16.2367 30.6215 16.2334 30.6394 16.2265C30.6572 16.2195 30.6734 16.2091 30.6871 16.1957C30.7078 16.1541 30.7159 16.1074 30.7102 16.0613V14.9587C30.7155 14.9097 30.7062 14.8602 30.6833 14.8165C30.6698 14.8041 30.6541 14.7946 30.637 14.7883C30.6198 14.782 30.6016 14.7792 30.5834 14.78V14.7397H31.0252V14.878C31.0541 14.8313 31.0928 14.7913 31.1385 14.7608C31.1915 14.7258 31.2536 14.7071 31.3172 14.707C31.3938 14.7071 31.4681 14.7328 31.5284 14.78C31.5944 14.8332 31.6443 14.9037 31.6725 14.9836C31.706 15.072 31.723 15.1658 31.7225 15.2602C31.7238 15.36 31.7062 15.459 31.6706 15.5522C31.6403 15.6288 31.589 15.6954 31.5227 15.7443C31.4676 15.7842 31.4027 15.8081 31.3349 15.8135C31.2672 15.8189 31.1992 15.8056 31.1385 15.775C31.0956 15.752 31.0572 15.7214 31.0252 15.6848ZM31.0252 15.5714C31.0461 15.6093 31.076 15.6414 31.1121 15.6652C31.1482 15.689 31.1896 15.7036 31.2326 15.7078C31.2534 15.7071 31.2736 15.7008 31.2912 15.6896C31.3087 15.6785 31.323 15.6629 31.3325 15.6444C31.4125 15.4064 31.4125 15.1487 31.3325 14.9106C31.3209 14.8905 31.3041 14.8738 31.2838 14.8623C31.2635 14.8508 31.2406 14.845 31.2173 14.8453C31.1424 14.8453 31.079 14.8991 31.0252 15.0086V15.5714Z" fill="#263238"/>
<path id="Vector_9" d="M32.3219 14.3537V14.7379H32.5716V14.8436H32.3219V15.4928C32.3172 15.5317 32.3172 15.5711 32.3219 15.61C32.3269 15.6267 32.337 15.6415 32.3507 15.6523C32.362 15.6621 32.3761 15.6682 32.391 15.6696C32.4391 15.6696 32.4852 15.6331 32.5293 15.5581L32.5639 15.5831C32.5442 15.6459 32.5047 15.7007 32.4515 15.7395C32.3982 15.7782 32.3339 15.7988 32.2681 15.7983C32.2063 15.8008 32.1456 15.7811 32.0971 15.7425C32.0558 15.7116 32.0249 15.6687 32.0088 15.6196C32.0024 15.5506 32.0024 15.4812 32.0088 15.4122V14.8359H31.8705V14.7955C31.9586 14.7348 32.0397 14.6646 32.1125 14.5862C32.1792 14.5103 32.2372 14.4272 32.2854 14.3384L32.3219 14.3537Z" fill="#263238"/>
<path id="Vector_10" d="M33.5627 15.2276H32.9865C32.9866 15.3469 33.0257 15.4629 33.0979 15.558C33.1202 15.5877 33.1493 15.6117 33.1827 15.628C33.216 15.6444 33.2528 15.6526 33.29 15.6521C33.3333 15.652 33.3755 15.6386 33.411 15.6137C33.4593 15.5774 33.4999 15.5316 33.5301 15.4792L33.5685 15.5042C33.5256 15.6007 33.4596 15.6851 33.3764 15.7501C33.3066 15.7987 33.2233 15.8242 33.1382 15.8231C33.0683 15.8269 32.9987 15.8122 32.9363 15.7805C32.8739 15.7488 32.8209 15.7012 32.7828 15.6425C32.7152 15.5353 32.6817 15.41 32.6868 15.2833C32.6781 15.1306 32.729 14.9804 32.8289 14.8645C32.8696 14.8152 32.9206 14.7755 32.9784 14.7483C33.0362 14.721 33.0993 14.7069 33.1632 14.707C33.2162 14.7075 33.2684 14.7196 33.3163 14.7425C33.3641 14.7654 33.4062 14.7985 33.4398 14.8396C33.5252 14.9504 33.5688 15.0878 33.5627 15.2276ZM33.2861 15.1527C33.2894 15.0689 33.2823 14.985 33.265 14.903C33.2563 14.8636 33.2355 14.828 33.2054 14.8012C33.1874 14.787 33.165 14.7796 33.1421 14.78C33.1223 14.7801 33.103 14.7855 33.0861 14.7956C33.0692 14.8058 33.0553 14.8203 33.046 14.8377C32.9974 14.9207 32.974 15.0162 32.9788 15.1123V15.1527H33.2861Z" fill="#263238"/>
<path id="Vector_11" d="M34.1312 14.7398V14.978C34.1809 14.8941 34.2461 14.8205 34.3233 14.761C34.3677 14.7289 34.4204 14.7102 34.4751 14.7072C34.4939 14.7063 34.5128 14.7094 34.5303 14.7164C34.5479 14.7233 34.5637 14.7339 34.5769 14.7475C34.59 14.7624 34.6 14.7798 34.6062 14.7986C34.6125 14.8174 34.6149 14.8373 34.6134 14.857C34.6161 14.8992 34.6031 14.941 34.5769 14.9742C34.566 14.987 34.5525 14.9973 34.5372 15.0043C34.5219 15.0113 34.5053 15.0148 34.4885 15.0145C34.4503 15.0152 34.4133 15.0015 34.3848 14.9761L34.3348 14.9339C34.326 14.9319 34.3168 14.9319 34.3079 14.9339C34.285 14.9341 34.263 14.943 34.2465 14.9588C34.2137 14.9874 34.1897 15.0247 34.1773 15.0664C34.1519 15.1445 34.1395 15.2263 34.1408 15.3084V15.6119C34.1372 15.6387 34.1372 15.6658 34.1408 15.6926C34.1483 15.7119 34.1627 15.7276 34.1812 15.7368C34.2098 15.7486 34.2404 15.7551 34.2714 15.756V15.7963H33.6952V15.756C33.7124 15.7564 33.7295 15.7532 33.7454 15.7466C33.7612 15.74 33.7756 15.7301 33.7874 15.7176C33.8102 15.6643 33.8188 15.6061 33.8123 15.5485V14.9723C33.8173 14.934 33.8173 14.8953 33.8123 14.857C33.8071 14.8384 33.7955 14.8221 33.7797 14.8109C33.7567 14.7981 33.7311 14.7908 33.7048 14.7898V14.7494L34.1312 14.7398Z" fill="#263238"/>
<path id="Vector_12" d="M35.9253 14.2347V15.4833C35.9228 15.5431 35.9266 15.603 35.9368 15.6619C35.9459 15.6886 35.9644 15.7111 35.9887 15.7253C36.0279 15.745 36.0717 15.7536 36.1155 15.7503H36.1501V15.7925H35.3471V15.7503H35.3875C35.4348 15.7537 35.4822 15.7458 35.5258 15.7272C35.5523 15.7151 35.573 15.693 35.5834 15.6658C35.5966 15.6026 35.6012 15.538 35.5968 15.4737V14.6823C35.5989 14.6379 35.5957 14.5934 35.5872 14.5497C35.5791 14.531 35.5657 14.515 35.5488 14.5036C35.5299 14.4916 35.5078 14.4856 35.4854 14.4863C35.4375 14.4886 35.3905 14.5004 35.3471 14.5209L35.326 14.4806L35.8869 14.2251L35.9253 14.2347Z" fill="#263238"/>
<path id="Vector_13" d="M29.986 24.1101V25.3453H29.8727C29.8282 25.1282 29.747 24.9203 29.6326 24.7306C29.5404 24.6021 29.4167 24.4996 29.2734 24.4328C29.1297 24.383 28.9776 24.3621 28.8258 24.3714H28.4858V27.8923C28.4766 28.0388 28.4896 28.1858 28.5242 28.3284C28.5575 28.3943 28.6105 28.448 28.676 28.4821C28.7709 28.5306 28.8769 28.5531 28.9833 28.5474H29.1351V28.6742H26.7378V28.5493H26.8896C27.0007 28.5543 27.1112 28.5304 27.2104 28.4801C27.2724 28.4428 27.3203 28.3861 27.3467 28.3188C27.3817 28.1802 27.3947 28.0369 27.3852 27.8943V24.3714H27.0548C26.8151 24.3491 26.5759 24.4177 26.3844 24.5635C26.1787 24.771 26.0489 25.0416 26.0156 25.3318H25.8869V24.0967L29.986 24.1101Z" fill="#263238"/>
<path id="Vector_14" d="M59.4735 19.0387C59.4735 19.0675 57.7447 19.0887 55.6164 19.0887C53.488 19.0887 51.7592 19.0675 51.7592 19.0387C51.7592 19.0099 53.488 18.9888 55.6164 18.9888C57.7447 18.9888 59.4735 19.0118 59.4735 19.0387Z" fill="#263238"/>
<path id="Vector_15" d="M59.3851 25.0377C59.3851 25.0646 53.0904 25.0877 45.3262 25.0877C37.5619 25.0877 31.2672 25.0646 31.2672 25.0377C31.2672 25.0108 37.56 24.9878 45.3262 24.9878C53.0923 24.9878 59.3851 25.0089 59.3851 25.0377Z" fill="#263238"/>
<path id="Vector_16" d="M59.3851 26.9704C59.3851 26.9992 53.0904 27.0203 45.3262 27.0203C37.5619 27.0203 31.2672 26.9992 31.2672 26.9704C31.2672 26.9415 37.56 26.9204 45.3262 26.9204C53.0923 26.9204 59.3851 26.9454 59.3851 26.9704Z" fill="#263238"/>
<path id="Vector_17" d="M59.3851 28.9044C59.3851 28.9332 53.0904 28.9544 45.3262 28.9544C37.5619 28.9544 31.2672 28.9332 31.2672 28.9044C31.2672 28.8756 37.56 28.8545 45.3262 28.8545C53.0923 28.8545 59.3851 28.8775 59.3851 28.9044Z" fill="#263238"/>
<path id="Vector_18" d="M59.3852 30.839C59.3852 30.8659 51.8304 30.8889 42.5122 30.8889C33.194 30.8889 25.6391 30.8659 25.6391 30.839C25.6391 30.8121 33.192 30.7891 42.5122 30.7891C51.8323 30.7891 59.3852 30.8121 59.3852 30.839Z" fill="#263238"/>
<path id="Vector_19" d="M59.3852 32.7731C59.3852 32.8 51.8304 32.823 42.5122 32.823C33.194 32.823 25.6391 32.8 25.6391 32.7731C25.6391 32.7462 33.192 32.7231 42.5122 32.7231C51.8323 32.7231 59.3852 32.7443 59.3852 32.7731Z" fill="#263238"/>
<path id="Vector_20" d="M44.6424 34.7076C44.6424 34.7345 40.3877 34.7576 35.1417 34.7576C29.8958 34.7576 25.6391 34.7345 25.6391 34.7076C25.6391 34.6807 29.892 34.6558 35.1417 34.6558C40.3915 34.6558 44.6424 34.6788 44.6424 34.7076Z" fill="#263238"/>
<path id="Vector_21" d="M59.3852 36.6398C59.3852 36.6686 51.8304 36.6897 42.5122 36.6897C33.194 36.6897 25.6391 36.6686 25.6391 36.6398C25.6391 36.611 33.192 36.5898 42.5122 36.5898C51.8323 36.5898 59.3852 36.6129 59.3852 36.6398Z" fill="#263238"/>
<path id="Vector_22" d="M59.3852 38.5744C59.3852 38.6012 51.8304 38.6243 42.5122 38.6243C33.194 38.6243 25.6391 38.6012 25.6391 38.5744C25.6391 38.5475 33.192 38.5244 42.5122 38.5244C51.8323 38.5244 59.3852 38.5475 59.3852 38.5744Z" fill="#263238"/>
<path id="Vector_23" d="M59.3852 40.5084C59.3852 40.5353 51.8304 40.5584 42.5122 40.5584C33.194 40.5584 25.6391 40.5353 25.6391 40.5084C25.6391 40.4815 33.192 40.4585 42.5122 40.4585C51.8323 40.4585 59.3852 40.4796 59.3852 40.5084Z" fill="#263238"/>
<path id="Vector_24" d="M59.3852 42.443C59.3852 42.4699 51.8304 42.493 42.5122 42.493C33.194 42.493 25.6391 42.4699 25.6391 42.443C25.6391 42.4161 33.192 42.3931 42.5122 42.3931C51.8323 42.3931 59.3852 42.4142 59.3852 42.443Z" fill="#263238"/>
<path id="Vector_25" d="M59.3852 44.3751C59.3852 44.4039 51.8304 44.4251 42.5122 44.4251C33.194 44.4251 25.6391 44.4039 25.6391 44.3751C25.6391 44.3463 33.192 44.3252 42.5122 44.3252C51.8323 44.3252 59.3852 44.3482 59.3852 44.3751Z" fill="#263238"/>
<path id="Vector_26" d="M31.2672 46.3097C31.2672 46.3385 30.0071 46.3597 28.4531 46.3597C26.8991 46.3597 25.6467 46.3462 25.6467 46.3097C25.6467 46.2732 26.9048 46.2598 28.4607 46.2598C30.0167 46.2598 31.2672 46.2828 31.2672 46.3097Z" fill="#263238"/>
<path id="Vector_27" d="M59.3851 48.2438C59.3851 48.2707 51.8302 48.2937 42.512 48.2937C33.1938 48.2937 25.6467 48.2668 25.6467 48.2438C25.6467 48.2207 33.1996 48.1938 42.5197 48.1938C51.8399 48.1938 59.3851 48.2169 59.3851 48.2438Z" fill="#263238"/>
<path id="Vector_28" d="M59.3851 50.1881C59.3851 50.215 51.8302 50.2381 42.512 50.2381C33.1938 50.2381 25.6467 50.2054 25.6467 50.1881C25.6467 50.1708 33.1996 50.1382 42.5197 50.1382C51.8399 50.1382 59.3851 50.1497 59.3851 50.1881Z" fill="#263238"/>
<path id="Vector_29" d="M59.3851 52.1085C59.3851 52.1374 51.8302 52.1585 42.512 52.1585C33.1938 52.1585 25.6467 52.1393 25.6467 52.1085C25.6467 52.0778 33.1996 52.0586 42.5197 52.0586C51.8399 52.0586 59.3851 52.0836 59.3851 52.1085Z" fill="#263238"/>
<path id="Vector_30" d="M51.5442 54.0451C51.5442 54.0739 45.745 54.095 38.5916 54.095C31.4383 54.095 25.6391 54.0739 25.6391 54.0451C25.6391 54.0162 31.4363 53.9951 38.5916 53.9951C45.7469 53.9951 51.5442 54.0182 51.5442 54.0451Z" fill="#263238"/>
<path id="Vector_31" d="M59.3852 55.9791C59.3852 56.006 51.8304 56.0291 42.5122 56.0291C33.194 56.0291 25.6391 56.006 25.6391 55.9791C25.6391 55.9522 33.192 55.9292 42.5122 55.9292C51.8323 55.9292 59.3852 55.9503 59.3852 55.9791Z" fill="#263238"/>
<path id="Vector_32" d="M59.3852 57.9137C59.3852 57.9406 51.8304 57.9637 42.5122 57.9637C33.194 57.9637 25.6391 57.9406 25.6391 57.9137C25.6391 57.8868 33.192 57.8638 42.5122 57.8638C51.8323 57.8638 59.3852 57.8849 59.3852 57.9137Z" fill="#263238"/>
<path id="Vector_33" d="M54.8441 59.8483C54.8441 59.8751 48.3131 59.8982 40.2454 59.8982C32.1777 59.8982 25.6467 59.8751 25.6467 59.8483C25.6467 59.8214 32.1777 59.7964 40.2454 59.7964C48.3131 59.7964 54.8441 59.8194 54.8441 59.8483Z" fill="#263238"/>
<path id="Vector_34" d="M59.3851 61.7804C59.3851 61.8092 51.8302 61.8304 42.512 61.8304C33.1938 61.8304 25.6467 61.8092 25.6467 61.7804C25.6467 61.7516 33.1996 61.7305 42.5197 61.7305C51.8399 61.7305 59.3851 61.7535 59.3851 61.7804Z" fill="#263238"/>
<path id="Vector_35" d="M59.3852 65.6491C59.3852 65.676 51.8304 65.699 42.5122 65.699C33.194 65.699 25.6391 65.676 25.6391 65.6491C25.6391 65.6222 33.192 65.5991 42.5122 65.5991C51.8323 65.5991 59.3852 65.6202 59.3852 65.6491Z" fill="#263238"/>
<path id="Vector_36" d="M59.3851 67.5836C59.3851 67.6105 51.8302 67.6336 42.512 67.6336C33.1938 67.6336 25.6467 67.6105 25.6467 67.5836C25.6467 67.5567 33.1996 67.5337 42.5197 67.5337C51.8399 67.5337 59.3851 67.5548 59.3851 67.5836Z" fill="#263238"/>
<path id="Vector_37" d="M59.3852 69.5158C59.3852 69.5446 51.8304 69.5657 42.5122 69.5657C33.194 69.5657 25.6391 69.5446 25.6391 69.5158C25.6391 69.487 33.192 69.4658 42.5122 69.4658C51.8323 69.4658 59.3852 69.4889 59.3852 69.5158Z" fill="#263238"/>
<path id="Vector_38" d="M43.5686 75.2226L43.461 75.5165H42.5621V75.4743C42.7684 75.297 42.9558 75.0987 43.121 74.8826C43.2163 74.7628 43.2727 74.6167 43.2824 74.4639C43.2842 74.42 43.2773 74.3762 43.2621 74.335C43.2469 74.2938 43.2238 74.256 43.194 74.2238C43.1669 74.1943 43.1339 74.1709 43.0972 74.1551C43.0605 74.1392 43.0208 74.1312 42.9808 74.1316C42.9082 74.1304 42.8373 74.1534 42.7791 74.1969C42.7161 74.2456 42.6698 74.3127 42.6466 74.389H42.6062C42.6148 74.2683 42.6658 74.1547 42.7503 74.0682C42.7888 74.0312 42.8342 74.0022 42.8841 73.9831C42.9339 73.964 42.987 73.955 43.0404 73.9568C43.0975 73.9551 43.1544 73.9648 43.2078 73.9853C43.2612 74.0057 43.3101 74.0365 43.3515 74.0758C43.3904 74.1119 43.4214 74.1556 43.4425 74.2042C43.4637 74.2528 43.4746 74.3052 43.4745 74.3582C43.4741 74.4381 43.4557 74.5169 43.4207 74.5887C43.3522 74.7303 43.2614 74.86 43.1518 74.9729C42.9597 75.1784 42.8483 75.3014 42.8002 75.3436H43.1998C43.2569 75.3448 43.3141 75.3416 43.3708 75.334C43.4024 75.3279 43.4324 75.3155 43.4591 75.2975C43.4867 75.2762 43.5096 75.2494 43.5263 75.2188L43.5686 75.2226Z" fill="#263238"/>
<path id="Vector_39" d="M43.7472 74.7619C43.744 74.6084 43.7708 74.4557 43.8259 74.3124C43.8686 74.2014 43.941 74.1044 44.0353 74.032C44.0957 73.9862 44.169 73.9606 44.2447 73.959C44.3076 73.9617 44.369 73.9793 44.4237 74.0104C44.4785 74.0414 44.5251 74.085 44.5597 74.1376C44.6846 74.3124 44.7463 74.5244 44.7345 74.7389C44.7389 74.8929 44.7128 75.0463 44.6577 75.1903C44.6213 75.2967 44.5545 75.3902 44.4656 75.4592C44.4001 75.5118 44.3191 75.5415 44.2351 75.5437C44.1567 75.5386 44.0812 75.5118 44.0171 75.4664C43.953 75.421 43.9028 75.3586 43.872 75.2863C43.7859 75.1252 43.7428 74.9446 43.7472 74.7619ZM43.9681 74.7907C43.9626 74.9657 43.9893 75.1402 44.0468 75.3055C44.0891 75.4169 44.1531 75.4726 44.2389 75.4726C44.2864 75.471 44.3316 75.4518 44.3657 75.4189C44.4178 75.3668 44.4521 75.2995 44.4637 75.2268C44.5034 75.0471 44.5208 74.8632 44.5155 74.6793C44.5194 74.5327 44.5012 74.3864 44.4618 74.2452C44.4459 74.1727 44.4099 74.1061 44.358 74.0531C44.3396 74.039 44.3186 74.0286 44.2962 74.0226C44.2738 74.0166 44.2504 74.0151 44.2274 74.0181C44.2044 74.0211 44.1822 74.0287 44.1621 74.0403C44.142 74.0519 44.1244 74.0673 44.1102 74.0858C44.0469 74.171 44.0084 74.272 43.9988 74.3777C43.9784 74.5145 43.9681 74.6525 43.9681 74.7907Z" fill="#263238"/>
<path id="Vector_40" d="M22.5732 80.3322C21.1441 77.8946 18.1245 77.8677 17.1333 79.8366V8.04733C17.1261 7.40268 17.353 6.77732 17.772 6.28733C18.191 5.79735 18.7735 5.47604 19.4115 5.38306C20.2509 5.27549 21.0135 5.59627 22.312 6.3435L22.5732 80.3322Z" fill="white"/>
<path id="Vector_41" d="M22.5733 80.3322C22.5733 79.804 22.435 47.7367 22.2602 6.3474L22.2852 6.38966C21.8897 6.15595 21.4826 5.94245 21.0654 5.75001C20.6459 5.54435 20.1878 5.42917 19.7208 5.41193C19.2433 5.41505 18.7766 5.55504 18.3762 5.81532C17.9742 6.07905 17.6521 6.44772 17.4446 6.88141C17.3375 7.10843 17.2613 7.34875 17.2179 7.59598C17.1828 7.84534 17.17 8.09733 17.1795 8.34897C17.1795 8.8612 17.1795 9.36831 17.1795 9.87031V18.8447C17.1795 22.7671 17.1795 26.5878 17.1795 30.3066C17.1795 37.7289 17.1795 44.6883 17.1795 51.008C17.1795 63.6474 17.1622 73.7244 17.1584 79.8367L17.1199 79.827C17.3519 79.3641 17.7207 78.9838 18.1764 78.7379C18.5758 78.5309 19.0193 78.4235 19.4692 78.4248C19.6694 78.4228 19.8693 78.4389 20.0666 78.4728C20.1607 78.4901 20.2587 78.5189 20.3413 78.5401C20.4286 78.5603 20.5141 78.588 20.5967 78.6227C20.7542 78.6776 20.9066 78.7464 21.052 78.8282L21.2556 78.9415C21.3171 78.9819 21.3766 79.026 21.4343 79.0683C21.5457 79.1407 21.6499 79.2237 21.7454 79.3161C21.8357 79.4025 21.9241 79.4774 21.9971 79.5562C22.1175 79.6892 22.2309 79.8284 22.3371 79.973C22.4888 80.2074 22.558 80.3111 22.5753 80.3399L22.3294 79.9807C22.2487 79.8578 22.1219 79.731 21.9855 79.5658C21.9126 79.489 21.8242 79.4141 21.7339 79.3295C21.6363 79.2394 21.5316 79.1572 21.4208 79.0837C21.3632 79.0433 21.3056 78.9992 21.2441 78.9588L21.0405 78.8493C20.8957 78.7682 20.744 78.7001 20.5871 78.6457C20.5051 78.612 20.4203 78.5856 20.3336 78.5669C20.2452 78.5458 20.1549 78.5189 20.0627 78.4997C19.8665 78.4681 19.6679 78.4534 19.4692 78.4555C19.0238 78.458 18.5855 78.568 18.1918 78.7763C17.7432 79.0191 17.3808 79.3949 17.1545 79.852L17.1161 79.9289V79.8443C17.1161 73.7321 17.1046 63.6551 17.095 51.0157C17.095 44.696 17.095 37.7366 17.095 30.3143C17.095 26.6006 17.095 22.7799 17.095 18.8524V12.8976C17.095 11.8949 17.095 10.8871 17.095 9.87415V8.34897C17.0863 8.0921 17.1004 7.83497 17.1372 7.58061C17.1817 7.32405 17.2605 7.07465 17.3716 6.83915C17.5853 6.38997 17.9173 6.00748 18.332 5.73272C18.7468 5.46326 19.23 5.31797 19.7247 5.31396C20.206 5.33136 20.6784 5.44913 21.1115 5.65972C21.5418 5.85181 21.9433 6.0804 22.339 6.30514L22.364 6.32051V6.34932C22.4811 47.7367 22.5733 79.804 22.5733 80.3322Z" fill="#263238"/>
<path id="Vector_42" d="M61.454 46.4055C61.4393 46.4056 61.4248 46.4022 61.4118 46.3955C61.3987 46.3888 61.3875 46.379 61.3791 46.367C61.3636 46.3469 61.3567 46.3214 61.3599 46.2962C61.3632 46.271 61.3763 46.2481 61.3963 46.2326L62.4874 45.4066L61.404 44.7189C61.3931 44.7124 61.3836 44.7038 61.3761 44.6935C61.3686 44.6833 61.3632 44.6716 61.3603 44.6592C61.3575 44.6468 61.3571 44.634 61.3594 44.6215C61.3616 44.609 61.3663 44.597 61.3733 44.5864C61.38 44.5756 61.3887 44.5663 61.399 44.559C61.4092 44.5516 61.4209 44.5464 61.4332 44.5435C61.4455 44.5406 61.4583 44.5402 61.4707 44.5423C61.4832 44.5444 61.4951 44.5489 61.5058 44.5556L62.7064 45.324C62.7197 45.3319 62.7308 45.3432 62.7386 45.3566C62.7463 45.3701 62.7504 45.3853 62.7506 45.4008C62.7516 45.4162 62.7488 45.4317 62.7424 45.4457C62.736 45.4598 62.7263 45.4721 62.7141 45.4815L61.5135 46.392C61.4957 46.4028 61.4748 46.4076 61.454 46.4055Z" fill="#E0E0E0"/>
<g id="Group" opacity="0.3">
<path id="Vector_43" d="M53.6667 6.30127V15.1604C53.667 15.2012 53.6793 15.2411 53.7022 15.2749C53.725 15.3088 53.7573 15.3351 53.795 15.3507C53.8327 15.3663 53.8742 15.3704 53.9143 15.3625C53.9543 15.3546 53.9912 15.3351 54.0202 15.3064L56.1543 13.1723C56.1935 13.1337 56.2463 13.112 56.3012 13.112C56.3562 13.112 56.409 13.1337 56.4482 13.1723L58.5804 15.3064C58.6093 15.3358 58.6463 15.3559 58.6867 15.3642C58.7271 15.3724 58.769 15.3685 58.8071 15.3528C58.8452 15.3371 58.8778 15.3105 58.9008 15.2762C58.9237 15.2419 58.9358 15.2016 58.9357 15.1604V6.30127H53.6667Z" fill="black"/>
</g>
<path id="Vector_44" d="M53.2173 6.30127V14.3421C53.2172 14.3833 53.2293 14.4236 53.2522 14.4579C53.2751 14.4922 53.3078 14.5188 53.3459 14.5345C53.384 14.5502 53.4259 14.5541 53.4663 14.5459C53.5067 14.5376 53.5437 14.5175 53.5726 14.4881L55.7067 12.3559C55.7257 12.3364 55.7484 12.3209 55.7735 12.3103C55.7985 12.2997 55.8255 12.2942 55.8527 12.2942C55.8799 12.2942 55.9069 12.2997 55.9319 12.3103C55.957 12.3209 55.9797 12.3364 55.9987 12.3559L58.1328 14.4881C58.1617 14.5175 58.1987 14.5376 58.2391 14.5459C58.2795 14.5541 58.3214 14.5502 58.3595 14.5345C58.3977 14.5188 58.4303 14.4922 58.4532 14.4579C58.4761 14.4236 58.4883 14.3833 58.4882 14.3421V6.30127H53.2173Z" fill="#FF725E"/>
</g>
</g>
</g>
</g>
<defs>
<clipPath id="clip0_33_4148">
<rect width="100" height="78.4483" rx="4" fill="white"/>
</clipPath>
</defs>
</svg>
